<svg clip-rule="evenodd" fill-rule="evenodd" height="512" image-rendering="optimizeQuality" shape-rendering="geometricPrecision" text-rendering="geometricPrecision" viewBox="0 0 1.70666 1.70666" width="512" xmlns="http://www.w3.org/2000/svg">
    <g id="Layer_x0020_1">
        <path d="m1.05929 1.68522c-.413106 0-1.01135-.572512-1.05641-.974319-.0205984-.182878.0766024-.321331.250976-.375146.139016-.0423386.165425-.0546378.177091-.0290276.00555512.0122205.0602795.091252.104165.154862.116425.168488.132374.185012.108476.202917-.00266929.002-.15226.111043-.153059.115559-.00097244.00541339.00541339.0211102.0188898.0468071.083.15774.202807.273693.374307.364311.0354449.0187283.0232205.0212953.0780591-.033752.0347244-.035.0738898-.0747244.105559-.0984724.00707874-.00527559.0165276-.00624803.0244449-.00222047.0949252.0477638.219378.155488.310559.217917.00791732.00541339.0116654.0152795.00944882.0245827-.0473661.199488-.0823583.38598-.352512.38598zm.238752-.846543c-.225283 0-.408618-.183335-.408618-.408618s.183335-.408622.408618-.408622.408618.183339.408618.408622-.183335.408618-.408618.408618zm.0829213-.153614h-.165839c-.0129173 0-.0233346-.0104173-.0233346-.0233346v-.125421h-.125417c-.0129173 0-.0233346-.0104134-.0233346-.0233307v-.165835c0-.0129213.0104173-.0233346.0233346-.0233346h.125417v-.125421c0-.0129173.0104173-.0233346.0233346-.0233346l.165839.00000394c.0129173 0 .0233346.0104173.0233346.0233346v.125421l.125413-.00000394c.0129213 0 .0233346.0104134.0233346.0233346v.165835c0 .0129173-.0104134.0233307-.0233346.0233307h-.125413v.125421c0 .0129173-.0105591.0233346-.0233346.0233346zm-.142504-.0466693h.119169v-.125417c0-.0129213.0104134-.0233346.0233346-.0233346l.125413.00000394v-.119169h-.125413c-.0129213 0-.0233346-.0104173-.0233346-.0233346v-.125421h-.119169v.125421c0 .0129173-.0104173.0233346-.0233346.0233346h-.125417v.119169h.125417c.0129173 0 .0233346.0104134.0233346.0233346v.125413z"/>
    </g>
</svg>