<svg xmlns="http://www.w3.org/2000/svg" xmlns:xlink="http://www.w3.org/1999/xlink" width="500" zoomAndPan="magnify" viewBox="0 0 375 374.999991" height="500" preserveAspectRatio="xMidYMid meet" version="1.0"><defs><g/><clipPath id="163cf3b13b"><path d="M 152.3125 103.234375 L 251.804688 103.234375 L 251.804688 218.808594 L 152.3125 218.808594 Z M 152.3125 103.234375 " clip-rule="nonzero"/></clipPath><clipPath id="86ca9b01d5"><path d="M 123.558594 90.621094 L 215 90.621094 L 215 198 L 123.558594 198 Z M 123.558594 90.621094 " clip-rule="nonzero"/></clipPath></defs><g fill="#008b95" fill-opacity="1"><g transform="translate(80.460937, 257.980339)"><g><path d="M 5.984375 0 L 3.015625 0 C 2.523438 0 2.28125 -0.242188 2.28125 -0.734375 L 2.28125 -21.765625 C 2.28125 -22.253906 2.523438 -22.5 3.015625 -22.5 L 5.984375 -22.5 C 6.472656 -22.5 6.71875 -22.253906 6.71875 -21.765625 L 6.71875 -13.546875 C 6.71875 -13.285156 6.859375 -13.15625 7.140625 -13.15625 L 13.0625 -13.15625 C 13.3125 -13.15625 13.4375 -13.285156 13.4375 -13.546875 L 13.4375 -21.765625 C 13.4375 -22.253906 13.679688 -22.5 14.171875 -22.5 L 17.15625 -22.5 C 17.644531 -22.5 17.890625 -22.253906 17.890625 -21.765625 L 17.890625 -0.734375 C 17.890625 -0.242188 17.644531 0 17.15625 0 L 14.171875 0 C 13.679688 0 13.4375 -0.242188 13.4375 -0.734375 L 13.4375 -8.921875 C 13.4375 -9.179688 13.3125 -9.3125 13.0625 -9.3125 L 7.140625 -9.3125 C 6.859375 -9.3125 6.71875 -9.179688 6.71875 -8.921875 L 6.71875 -0.734375 C 6.71875 -0.242188 6.472656 0 5.984375 0 Z M 5.984375 0 "/></g></g></g><g fill="#008b95" fill-opacity="1"><g transform="translate(100.616384, 257.980339)"><g><path d="M 6.890625 -21.765625 L 6.890625 -0.734375 C 6.890625 -0.242188 6.644531 0 6.15625 0 L 3.1875 0 C 2.695312 0 2.453125 -0.242188 2.453125 -0.734375 L 2.453125 -21.765625 C 2.453125 -22.253906 2.695312 -22.5 3.1875 -22.5 L 6.15625 -22.5 C 6.644531 -22.5 6.890625 -22.253906 6.890625 -21.765625 Z M 6.890625 -21.765625 "/></g></g></g><g fill="#008b95" fill-opacity="1"><g transform="translate(109.959272, 257.980339)"><g><path d="M 5.921875 0 L 3.015625 0 C 2.523438 0 2.28125 -0.242188 2.28125 -0.734375 L 2.28125 -21.765625 C 2.28125 -22.253906 2.523438 -22.5 3.015625 -22.5 L 5.640625 -22.5 C 6.128906 -22.5 6.453125 -22.335938 6.609375 -22.015625 L 13.6875 -8.75 L 13.828125 -8.75 L 13.828125 -21.765625 C 13.828125 -22.253906 14.070312 -22.5 14.5625 -22.5 L 17.46875 -22.5 C 17.957031 -22.5 18.203125 -22.253906 18.203125 -21.765625 L 18.203125 -0.734375 C 18.203125 -0.242188 17.957031 0 17.46875 0 L 14.90625 0 C 14.394531 0 14.023438 -0.234375 13.796875 -0.703125 L 6.796875 -13.71875 L 6.65625 -13.71875 L 6.65625 -0.734375 C 6.65625 -0.242188 6.410156 0 5.921875 0 Z M 5.921875 0 "/></g></g></g><g fill="#008b95" fill-opacity="1"><g transform="translate(130.42965, 257.980339)"><g><path d="M 4.625 0 L 1.265625 0 C 0.835938 0 0.695312 -0.242188 0.84375 -0.734375 L 6.375 -21.765625 C 6.53125 -22.253906 6.878906 -22.5 7.421875 -22.5 L 12.078125 -22.5 C 12.660156 -22.5 13.007812 -22.253906 13.125 -21.765625 L 18.65625 -0.734375 C 18.789062 -0.242188 18.648438 0 18.234375 0 L 14.875 0 C 14.613281 0 14.4375 -0.0507812 14.34375 -0.15625 C 14.25 -0.257812 14.179688 -0.453125 14.140625 -0.734375 L 13.15625 -4.578125 L 6.328125 -4.578125 L 5.359375 -0.734375 C 5.304688 -0.453125 5.226562 -0.257812 5.125 -0.15625 C 5.019531 -0.0507812 4.851562 0 4.625 0 Z M 9.6875 -18.265625 L 7.171875 -8.15625 L 12.359375 -8.15625 L 9.828125 -18.265625 Z M 9.6875 -18.265625 "/></g></g></g><g fill="#008b95" fill-opacity="1"><g transform="translate(149.920253, 257.980339)"><g/></g></g><g fill="#008b95" fill-opacity="1"><g transform="translate(157.61851, 257.980339)"><g><path d="M 5.984375 0 L 3.015625 0 C 2.523438 0 2.28125 -0.242188 2.28125 -0.734375 L 2.28125 -21.765625 C 2.28125 -22.253906 2.523438 -22.5 3.015625 -22.5 L 5.984375 -22.5 C 6.472656 -22.5 6.71875 -22.253906 6.71875 -21.765625 L 6.71875 -13.546875 C 6.71875 -13.285156 6.859375 -13.15625 7.140625 -13.15625 L 13.0625 -13.15625 C 13.3125 -13.15625 13.4375 -13.285156 13.4375 -13.546875 L 13.4375 -21.765625 C 13.4375 -22.253906 13.679688 -22.5 14.171875 -22.5 L 17.15625 -22.5 C 17.644531 -22.5 17.890625 -22.253906 17.890625 -21.765625 L 17.890625 -0.734375 C 17.890625 -0.242188 17.644531 0 17.15625 0 L 14.171875 0 C 13.679688 0 13.4375 -0.242188 13.4375 -0.734375 L 13.4375 -8.921875 C 13.4375 -9.179688 13.3125 -9.3125 13.0625 -9.3125 L 7.140625 -9.3125 C 6.859375 -9.3125 6.71875 -9.179688 6.71875 -8.921875 L 6.71875 -0.734375 C 6.71875 -0.242188 6.472656 0 5.984375 0 Z M 5.984375 0 "/></g></g></g><g fill="#008b95" fill-opacity="1"><g transform="translate(177.773958, 257.980339)"><g><path d="M 8.40625 -3.84375 L 10.890625 -3.84375 C 11.628906 -3.84375 12.15625 -4 12.46875 -4.3125 C 12.789062 -4.632812 12.953125 -5.171875 12.953125 -5.921875 L 12.953125 -16.59375 C 12.953125 -17.332031 12.789062 -17.859375 12.46875 -18.171875 C 12.15625 -18.492188 11.628906 -18.65625 10.890625 -18.65625 L 8.40625 -18.65625 C 7.65625 -18.65625 7.128906 -18.492188 6.828125 -18.171875 C 6.523438 -17.859375 6.375 -17.332031 6.375 -16.59375 L 6.375 -5.921875 C 6.375 -5.171875 6.523438 -4.632812 6.828125 -4.3125 C 7.128906 -4 7.65625 -3.84375 8.40625 -3.84375 Z M 11.625 0 L 7.703125 0 C 5.859375 0 4.429688 -0.488281 3.421875 -1.46875 C 2.421875 -2.445312 1.921875 -3.859375 1.921875 -5.703125 L 1.921875 -16.796875 C 1.921875 -18.640625 2.421875 -20.050781 3.421875 -21.03125 C 4.429688 -22.007812 5.859375 -22.5 7.703125 -22.5 L 11.625 -22.5 C 13.46875 -22.5 14.890625 -22.007812 15.890625 -21.03125 C 16.890625 -20.050781 17.390625 -18.640625 17.390625 -16.796875 L 17.390625 -5.703125 C 17.390625 -3.859375 16.890625 -2.445312 15.890625 -1.46875 C 14.890625 -0.488281 13.46875 0 11.625 0 Z M 11.625 0 "/></g></g></g><g fill="#008b95" fill-opacity="1"><g transform="translate(197.089592, 257.980339)"><g><path d="M 1.71875 -5.734375 L 1.71875 -6.4375 C 1.71875 -6.925781 1.960938 -7.171875 2.453125 -7.171875 L 5.421875 -7.171875 C 5.910156 -7.171875 6.15625 -6.925781 6.15625 -6.4375 L 6.15625 -6.15625 C 6.15625 -5.269531 6.328125 -4.660156 6.671875 -4.328125 C 7.023438 -4.003906 7.671875 -3.84375 8.609375 -3.84375 L 10.25 -3.84375 C 11.164062 -3.84375 11.800781 -4.019531 12.15625 -4.375 C 12.519531 -4.726562 12.703125 -5.378906 12.703125 -6.328125 L 12.703125 -6.75 C 12.703125 -7.425781 12.425781 -7.945312 11.875 -8.3125 C 11.332031 -8.675781 10.648438 -8.890625 9.828125 -8.953125 C 9.015625 -9.023438 8.132812 -9.160156 7.1875 -9.359375 C 6.25 -9.554688 5.367188 -9.8125 4.546875 -10.125 C 3.734375 -10.445312 3.050781 -11.066406 2.5 -11.984375 C 1.957031 -12.910156 1.6875 -14.097656 1.6875 -15.546875 L 1.6875 -16.765625 C 1.6875 -18.585938 2.195312 -20 3.21875 -21 C 4.25 -22 5.671875 -22.5 7.484375 -22.5 L 10.984375 -22.5 C 12.828125 -22.5 14.257812 -22 15.28125 -21 C 16.3125 -20 16.828125 -18.585938 16.828125 -16.765625 L 16.828125 -16.09375 C 16.828125 -15.601562 16.582031 -15.359375 16.09375 -15.359375 L 13.125 -15.359375 C 12.632812 -15.359375 12.390625 -15.601562 12.390625 -16.09375 L 12.390625 -16.3125 C 12.390625 -17.21875 12.210938 -17.832031 11.859375 -18.15625 C 11.515625 -18.488281 10.875 -18.65625 9.9375 -18.65625 L 8.578125 -18.65625 C 7.617188 -18.65625 6.96875 -18.472656 6.625 -18.109375 C 6.289062 -17.742188 6.125 -17.039062 6.125 -16 L 6.125 -15.328125 C 6.125 -14.234375 7.082031 -13.601562 9 -13.4375 C 10.976562 -13.269531 12.738281 -12.875 14.28125 -12.25 C 15.09375 -11.894531 15.773438 -11.269531 16.328125 -10.375 C 16.878906 -9.476562 17.15625 -8.332031 17.15625 -6.9375 L 17.15625 -5.734375 C 17.15625 -3.921875 16.640625 -2.507812 15.609375 -1.5 C 14.578125 -0.5 13.15625 0 11.34375 0 L 7.53125 0 C 5.707031 0 4.28125 -0.5 3.25 -1.5 C 2.226562 -2.507812 1.71875 -3.921875 1.71875 -5.734375 Z M 1.71875 -5.734375 "/></g></g></g><g fill="#008b95" fill-opacity="1"><g transform="translate(215.950335, 257.980339)"><g><path d="M 5.984375 0 L 3.015625 0 C 2.523438 0 2.28125 -0.242188 2.28125 -0.734375 L 2.28125 -21.765625 C 2.28125 -22.253906 2.523438 -22.5 3.015625 -22.5 L 11.546875 -22.5 C 13.367188 -22.5 14.78125 -22.003906 15.78125 -21.015625 C 16.789062 -20.023438 17.296875 -18.617188 17.296875 -16.796875 L 17.296875 -13.4375 C 17.296875 -11.613281 16.789062 -10.207031 15.78125 -9.21875 C 14.78125 -8.226562 13.367188 -7.734375 11.546875 -7.734375 L 7.140625 -7.734375 C 6.859375 -7.734375 6.71875 -7.601562 6.71875 -7.34375 L 6.71875 -0.734375 C 6.71875 -0.242188 6.472656 0 5.984375 0 Z M 7.109375 -11.625 L 10.8125 -11.625 C 11.5625 -11.625 12.085938 -11.78125 12.390625 -12.09375 C 12.691406 -12.40625 12.84375 -12.925781 12.84375 -13.65625 L 12.84375 -16.59375 C 12.84375 -17.332031 12.691406 -17.859375 12.390625 -18.171875 C 12.085938 -18.492188 11.5625 -18.65625 10.8125 -18.65625 L 7.109375 -18.65625 C 6.847656 -18.65625 6.71875 -18.523438 6.71875 -18.265625 L 6.71875 -12 C 6.71875 -11.75 6.847656 -11.625 7.109375 -11.625 Z M 7.109375 -11.625 "/></g></g></g><g fill="#008b95" fill-opacity="1"><g transform="translate(234.496149, 257.980339)"><g><path d="M 6.890625 -21.765625 L 6.890625 -0.734375 C 6.890625 -0.242188 6.644531 0 6.15625 0 L 3.1875 0 C 2.695312 0 2.453125 -0.242188 2.453125 -0.734375 L 2.453125 -21.765625 C 2.453125 -22.253906 2.695312 -22.5 3.1875 -22.5 L 6.15625 -22.5 C 6.644531 -22.5 6.890625 -22.253906 6.890625 -21.765625 Z M 6.890625 -21.765625 "/></g></g></g><g fill="#008b95" fill-opacity="1"><g transform="translate(243.839036, 257.980339)"><g><path d="M 9.234375 0 L 6.296875 0 C 5.785156 0 5.53125 -0.242188 5.53125 -0.734375 L 5.53125 -18.265625 C 5.53125 -18.523438 5.398438 -18.65625 5.140625 -18.65625 L 1.15625 -18.65625 C 0.664062 -18.65625 0.421875 -18.898438 0.421875 -19.390625 L 0.421875 -21.765625 C 0.421875 -22.253906 0.664062 -22.5 1.15625 -22.5 L 14.390625 -22.5 C 14.878906 -22.5 15.125 -22.253906 15.125 -21.765625 L 15.125 -19.390625 C 15.125 -18.898438 14.878906 -18.65625 14.390625 -18.65625 L 10.390625 -18.65625 C 10.109375 -18.65625 9.96875 -18.523438 9.96875 -18.265625 L 9.96875 -0.734375 C 9.96875 -0.242188 9.722656 0 9.234375 0 Z M 9.234375 0 "/></g></g></g><g fill="#008b95" fill-opacity="1"><g transform="translate(259.340538, 257.980339)"><g><path d="M 4.625 0 L 1.265625 0 C 0.835938 0 0.695312 -0.242188 0.84375 -0.734375 L 6.375 -21.765625 C 6.53125 -22.253906 6.878906 -22.5 7.421875 -22.5 L 12.078125 -22.5 C 12.660156 -22.5 13.007812 -22.253906 13.125 -21.765625 L 18.65625 -0.734375 C 18.789062 -0.242188 18.648438 0 18.234375 0 L 14.875 0 C 14.613281 0 14.4375 -0.0507812 14.34375 -0.15625 C 14.25 -0.257812 14.179688 -0.453125 14.140625 -0.734375 L 13.15625 -4.578125 L 6.328125 -4.578125 L 5.359375 -0.734375 C 5.304688 -0.453125 5.226562 -0.257812 5.125 -0.15625 C 5.019531 -0.0507812 4.851562 0 4.625 0 Z M 9.6875 -18.265625 L 7.171875 -8.15625 L 12.359375 -8.15625 L 9.828125 -18.265625 Z M 9.6875 -18.265625 "/></g></g></g><g fill="#008b95" fill-opacity="1"><g transform="translate(278.831142, 257.980339)"><g><path d="M 14.53125 0 L 3.015625 0 C 2.523438 0 2.28125 -0.242188 2.28125 -0.734375 L 2.28125 -21.765625 C 2.28125 -22.253906 2.523438 -22.5 3.015625 -22.5 L 5.984375 -22.5 C 6.472656 -22.5 6.71875 -22.253906 6.71875 -21.765625 L 6.71875 -4.265625 C 6.71875 -4.015625 6.859375 -3.890625 7.140625 -3.890625 L 14.53125 -3.890625 C 14.988281 -3.890625 15.21875 -3.628906 15.21875 -3.109375 L 15.21875 -0.734375 C 15.21875 -0.242188 14.988281 0 14.53125 0 Z M 14.53125 0 "/></g></g></g><g fill="#f29e23" fill-opacity="1"><g transform="translate(121.306242, 281.930343)"><g><path d="M 1.03125 0 C 0.882812 0 0.8125 -0.0703125 0.8125 -0.21875 L 0.8125 -8.875 C 0.8125 -9.019531 0.882812 -9.09375 1.03125 -9.09375 L 2.421875 -9.09375 C 2.535156 -9.09375 2.617188 -9.046875 2.671875 -8.953125 L 4.5625 -5.921875 C 4.582031 -5.890625 4.601562 -5.875 4.625 -5.875 C 4.644531 -5.875 4.660156 -5.890625 4.671875 -5.921875 L 6.578125 -8.953125 C 6.640625 -9.046875 6.726562 -9.09375 6.84375 -9.09375 L 8.234375 -9.09375 C 8.378906 -9.09375 8.453125 -9.019531 8.453125 -8.875 L 8.453125 -0.21875 C 8.453125 -0.0703125 8.378906 0 8.234375 0 L 6.84375 0 C 6.6875 0 6.609375 -0.0703125 6.609375 -0.21875 L 6.609375 -5.84375 C 6.609375 -5.882812 6.597656 -5.90625 6.578125 -5.90625 C 6.554688 -5.914062 6.539062 -5.90625 6.53125 -5.875 L 5.21875 -3.734375 C 5.15625 -3.640625 5.066406 -3.59375 4.953125 -3.59375 L 4.296875 -3.59375 C 4.179688 -3.59375 4.09375 -3.640625 4.03125 -3.734375 L 2.734375 -5.875 C 2.710938 -5.90625 2.691406 -5.914062 2.671875 -5.90625 C 2.648438 -5.90625 2.640625 -5.882812 2.640625 -5.84375 L 2.640625 -0.21875 C 2.640625 -0.0703125 2.566406 0 2.421875 0 Z M 1.03125 0 "/></g></g></g><g fill="#f29e23" fill-opacity="1"><g transform="translate(131.846397, 281.930343)"><g><path d="M 7.109375 -7.75 C 7.109375 -7.601562 7.035156 -7.53125 6.890625 -7.53125 L 2.703125 -7.53125 C 2.648438 -7.53125 2.625 -7.503906 2.625 -7.453125 L 2.625 -5.453125 C 2.625 -5.398438 2.648438 -5.375 2.703125 -5.375 L 5.421875 -5.375 C 5.566406 -5.375 5.640625 -5.300781 5.640625 -5.15625 L 5.640625 -4.03125 C 5.640625 -3.882812 5.566406 -3.8125 5.421875 -3.8125 L 2.703125 -3.8125 C 2.648438 -3.8125 2.625 -3.785156 2.625 -3.734375 L 2.625 -1.65625 C 2.625 -1.601562 2.648438 -1.578125 2.703125 -1.578125 L 6.890625 -1.578125 C 7.035156 -1.578125 7.109375 -1.503906 7.109375 -1.359375 L 7.109375 -0.21875 C 7.109375 -0.0703125 7.035156 0 6.890625 0 L 1.015625 0 C 0.867188 0 0.796875 -0.0703125 0.796875 -0.21875 L 0.796875 -8.875 C 0.796875 -9.019531 0.867188 -9.09375 1.015625 -9.09375 L 6.890625 -9.09375 C 7.035156 -9.09375 7.109375 -9.019531 7.109375 -8.875 Z M 7.109375 -7.75 "/></g></g></g><g fill="#f29e23" fill-opacity="1"><g transform="translate(140.736062, 281.930343)"><g><path d="M 1.015625 0 C 0.867188 0 0.796875 -0.0703125 0.796875 -0.21875 L 0.796875 -8.875 C 0.796875 -9.019531 0.867188 -9.09375 1.015625 -9.09375 L 4.203125 -9.09375 C 4.847656 -9.09375 5.414062 -8.976562 5.90625 -8.75 C 6.394531 -8.519531 6.773438 -8.195312 7.046875 -7.78125 C 7.316406 -7.363281 7.453125 -6.882812 7.453125 -6.34375 L 7.453125 -2.75 C 7.453125 -2.207031 7.316406 -1.726562 7.046875 -1.3125 C 6.773438 -0.894531 6.394531 -0.570312 5.90625 -0.34375 C 5.414062 -0.113281 4.847656 0 4.203125 0 Z M 2.625 -1.65625 C 2.625 -1.601562 2.648438 -1.578125 2.703125 -1.578125 L 4.265625 -1.578125 C 4.660156 -1.578125 4.984375 -1.707031 5.234375 -1.96875 C 5.484375 -2.238281 5.609375 -2.601562 5.609375 -3.0625 L 5.609375 -6.046875 C 5.609375 -6.492188 5.484375 -6.851562 5.234375 -7.125 C 4.992188 -7.394531 4.664062 -7.53125 4.25 -7.53125 L 2.703125 -7.53125 C 2.648438 -7.53125 2.625 -7.503906 2.625 -7.453125 Z M 2.625 -1.65625 "/></g></g></g><g fill="#f29e23" fill-opacity="1"><g transform="translate(150.067594, 281.930343)"><g><path d="M 1.015625 0 C 0.867188 0 0.796875 -0.0703125 0.796875 -0.21875 L 0.796875 -8.875 C 0.796875 -9.019531 0.867188 -9.09375 1.015625 -9.09375 L 2.40625 -9.09375 C 2.550781 -9.09375 2.625 -9.019531 2.625 -8.875 L 2.625 -0.21875 C 2.625 -0.0703125 2.550781 0 2.40625 0 Z M 1.015625 0 "/></g></g></g><g fill="#f29e23" fill-opacity="1"><g transform="translate(154.785535, 281.930343)"><g><path d="M 3.984375 0.109375 C 3.316406 0.109375 2.722656 -0.0195312 2.203125 -0.28125 C 1.691406 -0.550781 1.296875 -0.925781 1.015625 -1.40625 C 0.742188 -1.882812 0.609375 -2.4375 0.609375 -3.0625 L 0.609375 -6.0625 C 0.609375 -6.6875 0.742188 -7.234375 1.015625 -7.703125 C 1.296875 -8.179688 1.691406 -8.550781 2.203125 -8.8125 C 2.722656 -9.070312 3.316406 -9.203125 3.984375 -9.203125 C 4.648438 -9.203125 5.238281 -9.078125 5.75 -8.828125 C 6.257812 -8.585938 6.65625 -8.238281 6.9375 -7.78125 C 7.21875 -7.320312 7.359375 -6.796875 7.359375 -6.203125 C 7.359375 -6.117188 7.289062 -6.070312 7.15625 -6.0625 L 5.765625 -5.96875 L 5.703125 -5.96875 C 5.585938 -5.96875 5.53125 -5.988281 5.53125 -6.03125 L 5.53125 -6.109375 C 5.53125 -6.566406 5.390625 -6.929688 5.109375 -7.203125 C 4.828125 -7.484375 4.453125 -7.625 3.984375 -7.625 C 3.515625 -7.625 3.140625 -7.484375 2.859375 -7.203125 C 2.578125 -6.929688 2.4375 -6.566406 2.4375 -6.109375 L 2.4375 -2.984375 C 2.4375 -2.523438 2.578125 -2.15625 2.859375 -1.875 C 3.140625 -1.601562 3.515625 -1.46875 3.984375 -1.46875 C 4.453125 -1.46875 4.828125 -1.601562 5.109375 -1.875 C 5.390625 -2.15625 5.53125 -2.523438 5.53125 -2.984375 C 5.53125 -3.023438 5.546875 -3.0625 5.578125 -3.09375 C 5.617188 -3.125 5.675781 -3.132812 5.75 -3.125 L 7.140625 -3.0625 C 7.285156 -3.039062 7.359375 -3.015625 7.359375 -2.984375 L 7.359375 -2.921875 C 7.359375 -2.328125 7.21875 -1.800781 6.9375 -1.34375 C 6.65625 -0.882812 6.257812 -0.523438 5.75 -0.265625 C 5.238281 -0.015625 4.648438 0.109375 3.984375 0.109375 Z M 3.984375 0.109375 "/></g></g></g><g fill="#f29e23" fill-opacity="1"><g transform="translate(163.987111, 281.930343)"><g><path d="M 6.640625 0 C 6.523438 0 6.441406 -0.0625 6.390625 -0.1875 L 6.03125 -1.390625 C 6.019531 -1.429688 5.992188 -1.453125 5.953125 -1.453125 L 2.765625 -1.453125 C 2.722656 -1.453125 2.695312 -1.429688 2.6875 -1.390625 L 2.328125 -0.1875 C 2.285156 -0.0625 2.203125 0 2.078125 0 L 0.578125 0 C 0.492188 0 0.429688 -0.0195312 0.390625 -0.0625 C 0.359375 -0.113281 0.359375 -0.175781 0.390625 -0.25 L 3.15625 -8.921875 C 3.195312 -9.035156 3.28125 -9.09375 3.40625 -9.09375 L 5.3125 -9.09375 C 5.4375 -9.09375 5.519531 -9.035156 5.5625 -8.921875 L 8.328125 -0.25 C 8.335938 -0.226562 8.34375 -0.203125 8.34375 -0.171875 C 8.34375 -0.117188 8.320312 -0.078125 8.28125 -0.046875 C 8.25 -0.015625 8.207031 0 8.15625 0 Z M 3.140625 -2.96875 C 3.140625 -2.90625 3.164062 -2.875 3.21875 -2.875 L 5.515625 -2.875 C 5.566406 -2.875 5.585938 -2.90625 5.578125 -2.96875 L 4.40625 -6.921875 C 4.394531 -6.960938 4.378906 -6.984375 4.359375 -6.984375 C 4.335938 -6.984375 4.316406 -6.960938 4.296875 -6.921875 Z M 3.140625 -2.96875 "/></g></g></g><g fill="#f29e23" fill-opacity="1"><g transform="translate(174.007431, 281.930343)"><g><path d="M 1.015625 0 C 0.867188 0 0.796875 -0.0703125 0.796875 -0.21875 L 0.796875 -8.875 C 0.796875 -9.019531 0.867188 -9.09375 1.015625 -9.09375 L 2.40625 -9.09375 C 2.550781 -9.09375 2.625 -9.019531 2.625 -8.875 L 2.625 -1.65625 C 2.625 -1.601562 2.648438 -1.578125 2.703125 -1.578125 L 6.875 -1.578125 C 7.019531 -1.578125 7.09375 -1.503906 7.09375 -1.359375 L 7.09375 -0.21875 C 7.09375 -0.0703125 7.019531 0 6.875 0 Z M 1.015625 0 "/></g></g></g><g fill="#f29e23" fill-opacity="1"><g transform="translate(182.741149, 281.930343)"><g/></g></g><g fill="#f29e23" fill-opacity="1"><g transform="translate(186.640346, 281.930343)"><g><path d="M 3.875 0.109375 C 3.195312 0.109375 2.601562 -0.00390625 2.09375 -0.234375 C 1.582031 -0.460938 1.1875 -0.78125 0.90625 -1.1875 C 0.632812 -1.59375 0.5 -2.066406 0.5 -2.609375 L 0.5 -2.828125 C 0.5 -2.984375 0.570312 -3.0625 0.71875 -3.0625 L 2.078125 -3.0625 C 2.222656 -3.0625 2.296875 -3.003906 2.296875 -2.890625 L 2.296875 -2.703125 C 2.296875 -2.359375 2.453125 -2.066406 2.765625 -1.828125 C 3.085938 -1.585938 3.503906 -1.46875 4.015625 -1.46875 C 4.472656 -1.46875 4.8125 -1.5625 5.03125 -1.75 C 5.257812 -1.945312 5.375 -2.191406 5.375 -2.484375 C 5.375 -2.691406 5.300781 -2.863281 5.15625 -3 C 5.019531 -3.144531 4.832031 -3.269531 4.59375 -3.375 C 4.363281 -3.488281 3.988281 -3.640625 3.46875 -3.828125 C 2.882812 -4.035156 2.390625 -4.242188 1.984375 -4.453125 C 1.585938 -4.660156 1.25 -4.941406 0.96875 -5.296875 C 0.695312 -5.660156 0.5625 -6.101562 0.5625 -6.625 C 0.5625 -7.144531 0.691406 -7.597656 0.953125 -7.984375 C 1.222656 -8.378906 1.597656 -8.679688 2.078125 -8.890625 C 2.566406 -9.097656 3.117188 -9.203125 3.734375 -9.203125 C 4.390625 -9.203125 4.976562 -9.082031 5.5 -8.84375 C 6.019531 -8.613281 6.425781 -8.285156 6.71875 -7.859375 C 7.007812 -7.441406 7.15625 -6.957031 7.15625 -6.40625 L 7.15625 -6.28125 C 7.15625 -6.132812 7.078125 -6.0625 6.921875 -6.0625 L 5.5625 -6.0625 C 5.414062 -6.0625 5.34375 -6.101562 5.34375 -6.1875 L 5.34375 -6.3125 C 5.34375 -6.675781 5.191406 -6.984375 4.890625 -7.234375 C 4.597656 -7.492188 4.191406 -7.625 3.671875 -7.625 C 3.253906 -7.625 2.929688 -7.535156 2.703125 -7.359375 C 2.472656 -7.191406 2.359375 -6.957031 2.359375 -6.65625 C 2.359375 -6.4375 2.421875 -6.253906 2.546875 -6.109375 C 2.679688 -5.960938 2.878906 -5.828125 3.140625 -5.703125 C 3.410156 -5.585938 3.820312 -5.429688 4.375 -5.234375 C 4.988281 -5.015625 5.472656 -4.816406 5.828125 -4.640625 C 6.179688 -4.472656 6.5 -4.21875 6.78125 -3.875 C 7.0625 -3.53125 7.203125 -3.082031 7.203125 -2.53125 C 7.203125 -2 7.066406 -1.535156 6.796875 -1.140625 C 6.523438 -0.742188 6.140625 -0.4375 5.640625 -0.21875 C 5.140625 0 4.550781 0.109375 3.875 0.109375 Z M 3.875 0.109375 "/></g></g></g><g fill="#f29e23" fill-opacity="1"><g transform="translate(195.633982, 281.930343)"><g><path d="M 7.109375 -7.75 C 7.109375 -7.601562 7.035156 -7.53125 6.890625 -7.53125 L 2.703125 -7.53125 C 2.648438 -7.53125 2.625 -7.503906 2.625 -7.453125 L 2.625 -5.453125 C 2.625 -5.398438 2.648438 -5.375 2.703125 -5.375 L 5.421875 -5.375 C 5.566406 -5.375 5.640625 -5.300781 5.640625 -5.15625 L 5.640625 -4.03125 C 5.640625 -3.882812 5.566406 -3.8125 5.421875 -3.8125 L 2.703125 -3.8125 C 2.648438 -3.8125 2.625 -3.785156 2.625 -3.734375 L 2.625 -1.65625 C 2.625 -1.601562 2.648438 -1.578125 2.703125 -1.578125 L 6.890625 -1.578125 C 7.035156 -1.578125 7.109375 -1.503906 7.109375 -1.359375 L 7.109375 -0.21875 C 7.109375 -0.0703125 7.035156 0 6.890625 0 L 1.015625 0 C 0.867188 0 0.796875 -0.0703125 0.796875 -0.21875 L 0.796875 -8.875 C 0.796875 -9.019531 0.867188 -9.09375 1.015625 -9.09375 L 6.890625 -9.09375 C 7.035156 -9.09375 7.109375 -9.019531 7.109375 -8.875 Z M 7.109375 -7.75 "/></g></g></g><g fill="#f29e23" fill-opacity="1"><g transform="translate(204.523649, 281.930343)"><g><path d="M 5.84375 0 C 5.726562 0 5.640625 -0.0546875 5.578125 -0.171875 L 3.984375 -3.703125 C 3.960938 -3.742188 3.929688 -3.765625 3.890625 -3.765625 L 2.703125 -3.765625 C 2.648438 -3.765625 2.625 -3.738281 2.625 -3.6875 L 2.625 -0.21875 C 2.625 -0.0703125 2.550781 0 2.40625 0 L 1.015625 0 C 0.867188 0 0.796875 -0.0703125 0.796875 -0.21875 L 0.796875 -8.890625 C 0.796875 -9.035156 0.867188 -9.109375 1.015625 -9.109375 L 4.671875 -9.109375 C 5.222656 -9.109375 5.707031 -8.992188 6.125 -8.765625 C 6.550781 -8.535156 6.878906 -8.210938 7.109375 -7.796875 C 7.335938 -7.378906 7.453125 -6.90625 7.453125 -6.375 C 7.453125 -5.78125 7.300781 -5.269531 7 -4.84375 C 6.707031 -4.425781 6.300781 -4.128906 5.78125 -3.953125 C 5.757812 -3.941406 5.742188 -3.925781 5.734375 -3.90625 C 5.722656 -3.882812 5.726562 -3.863281 5.75 -3.84375 L 7.46875 -0.265625 C 7.488281 -0.222656 7.5 -0.179688 7.5 -0.140625 C 7.5 -0.0976562 7.476562 -0.0625 7.4375 -0.03125 C 7.40625 -0.0078125 7.363281 0 7.3125 0 Z M 2.703125 -7.53125 C 2.648438 -7.53125 2.625 -7.503906 2.625 -7.453125 L 2.625 -5.265625 C 2.625 -5.210938 2.648438 -5.1875 2.703125 -5.1875 L 4.390625 -5.1875 C 4.753906 -5.1875 5.050781 -5.289062 5.28125 -5.5 C 5.507812 -5.71875 5.625 -6 5.625 -6.34375 C 5.625 -6.6875 5.507812 -6.96875 5.28125 -7.1875 C 5.050781 -7.414062 4.753906 -7.53125 4.390625 -7.53125 Z M 2.703125 -7.53125 "/></g></g></g><g fill="#f29e23" fill-opacity="1"><g transform="translate(213.803193, 281.930343)"><g><path d="M 3.28125 0 C 3.15625 0 3.070312 -0.0625 3.03125 -0.1875 L 0.390625 -8.859375 C 0.378906 -8.867188 0.375 -8.894531 0.375 -8.9375 C 0.375 -9.039062 0.441406 -9.09375 0.578125 -9.09375 L 2.078125 -9.09375 C 2.203125 -9.09375 2.285156 -9.035156 2.328125 -8.921875 L 4.03125 -2.65625 C 4.039062 -2.613281 4.054688 -2.59375 4.078125 -2.59375 C 4.109375 -2.59375 4.128906 -2.613281 4.140625 -2.65625 L 5.8125 -8.90625 C 5.851562 -9.03125 5.9375 -9.09375 6.0625 -9.09375 L 7.53125 -9.09375 C 7.601562 -9.09375 7.65625 -9.066406 7.6875 -9.015625 C 7.726562 -8.972656 7.734375 -8.921875 7.703125 -8.859375 L 5.03125 -0.1875 C 4.988281 -0.0625 4.90625 0 4.78125 0 Z M 3.28125 0 "/></g></g></g><g fill="#f29e23" fill-opacity="1"><g transform="translate(223.186701, 281.930343)"><g><path d="M 1.015625 0 C 0.867188 0 0.796875 -0.0703125 0.796875 -0.21875 L 0.796875 -8.875 C 0.796875 -9.019531 0.867188 -9.09375 1.015625 -9.09375 L 2.40625 -9.09375 C 2.550781 -9.09375 2.625 -9.019531 2.625 -8.875 L 2.625 -0.21875 C 2.625 -0.0703125 2.550781 0 2.40625 0 Z M 1.015625 0 "/></g></g></g><g fill="#f29e23" fill-opacity="1"><g transform="translate(227.904642, 281.930343)"><g><path d="M 3.984375 0.109375 C 3.316406 0.109375 2.722656 -0.0195312 2.203125 -0.28125 C 1.691406 -0.550781 1.296875 -0.925781 1.015625 -1.40625 C 0.742188 -1.882812 0.609375 -2.4375 0.609375 -3.0625 L 0.609375 -6.0625 C 0.609375 -6.6875 0.742188 -7.234375 1.015625 -7.703125 C 1.296875 -8.179688 1.691406 -8.550781 2.203125 -8.8125 C 2.722656 -9.070312 3.316406 -9.203125 3.984375 -9.203125 C 4.648438 -9.203125 5.238281 -9.078125 5.75 -8.828125 C 6.257812 -8.585938 6.65625 -8.238281 6.9375 -7.78125 C 7.21875 -7.320312 7.359375 -6.796875 7.359375 -6.203125 C 7.359375 -6.117188 7.289062 -6.070312 7.15625 -6.0625 L 5.765625 -5.96875 L 5.703125 -5.96875 C 5.585938 -5.96875 5.53125 -5.988281 5.53125 -6.03125 L 5.53125 -6.109375 C 5.53125 -6.566406 5.390625 -6.929688 5.109375 -7.203125 C 4.828125 -7.484375 4.453125 -7.625 3.984375 -7.625 C 3.515625 -7.625 3.140625 -7.484375 2.859375 -7.203125 C 2.578125 -6.929688 2.4375 -6.566406 2.4375 -6.109375 L 2.4375 -2.984375 C 2.4375 -2.523438 2.578125 -2.15625 2.859375 -1.875 C 3.140625 -1.601562 3.515625 -1.46875 3.984375 -1.46875 C 4.453125 -1.46875 4.828125 -1.601562 5.109375 -1.875 C 5.390625 -2.15625 5.53125 -2.523438 5.53125 -2.984375 C 5.53125 -3.023438 5.546875 -3.0625 5.578125 -3.09375 C 5.617188 -3.125 5.675781 -3.132812 5.75 -3.125 L 7.140625 -3.0625 C 7.285156 -3.039062 7.359375 -3.015625 7.359375 -2.984375 L 7.359375 -2.921875 C 7.359375 -2.328125 7.21875 -1.800781 6.9375 -1.34375 C 6.65625 -0.882812 6.257812 -0.523438 5.75 -0.265625 C 5.238281 -0.015625 4.648438 0.109375 3.984375 0.109375 Z M 3.984375 0.109375 "/></g></g></g><g fill="#f29e23" fill-opacity="1"><g transform="translate(237.106218, 281.930343)"><g><path d="M 7.109375 -7.75 C 7.109375 -7.601562 7.035156 -7.53125 6.890625 -7.53125 L 2.703125 -7.53125 C 2.648438 -7.53125 2.625 -7.503906 2.625 -7.453125 L 2.625 -5.453125 C 2.625 -5.398438 2.648438 -5.375 2.703125 -5.375 L 5.421875 -5.375 C 5.566406 -5.375 5.640625 -5.300781 5.640625 -5.15625 L 5.640625 -4.03125 C 5.640625 -3.882812 5.566406 -3.8125 5.421875 -3.8125 L 2.703125 -3.8125 C 2.648438 -3.8125 2.625 -3.785156 2.625 -3.734375 L 2.625 -1.65625 C 2.625 -1.601562 2.648438 -1.578125 2.703125 -1.578125 L 6.890625 -1.578125 C 7.035156 -1.578125 7.109375 -1.503906 7.109375 -1.359375 L 7.109375 -0.21875 C 7.109375 -0.0703125 7.035156 0 6.890625 0 L 1.015625 0 C 0.867188 0 0.796875 -0.0703125 0.796875 -0.21875 L 0.796875 -8.875 C 0.796875 -9.019531 0.867188 -9.09375 1.015625 -9.09375 L 6.890625 -9.09375 C 7.035156 -9.09375 7.109375 -9.019531 7.109375 -8.875 Z M 7.109375 -7.75 "/></g></g></g><g fill="#f29e23" fill-opacity="1"><g transform="translate(245.995885, 281.930343)"><g><path d="M 3.875 0.109375 C 3.195312 0.109375 2.601562 -0.00390625 2.09375 -0.234375 C 1.582031 -0.460938 1.1875 -0.78125 0.90625 -1.1875 C 0.632812 -1.59375 0.5 -2.066406 0.5 -2.609375 L 0.5 -2.828125 C 0.5 -2.984375 0.570312 -3.0625 0.71875 -3.0625 L 2.078125 -3.0625 C 2.222656 -3.0625 2.296875 -3.003906 2.296875 -2.890625 L 2.296875 -2.703125 C 2.296875 -2.359375 2.453125 -2.066406 2.765625 -1.828125 C 3.085938 -1.585938 3.503906 -1.46875 4.015625 -1.46875 C 4.472656 -1.46875 4.8125 -1.5625 5.03125 -1.75 C 5.257812 -1.945312 5.375 -2.191406 5.375 -2.484375 C 5.375 -2.691406 5.300781 -2.863281 5.15625 -3 C 5.019531 -3.144531 4.832031 -3.269531 4.59375 -3.375 C 4.363281 -3.488281 3.988281 -3.640625 3.46875 -3.828125 C 2.882812 -4.035156 2.390625 -4.242188 1.984375 -4.453125 C 1.585938 -4.660156 1.25 -4.941406 0.96875 -5.296875 C 0.695312 -5.660156 0.5625 -6.101562 0.5625 -6.625 C 0.5625 -7.144531 0.691406 -7.597656 0.953125 -7.984375 C 1.222656 -8.378906 1.597656 -8.679688 2.078125 -8.890625 C 2.566406 -9.097656 3.117188 -9.203125 3.734375 -9.203125 C 4.390625 -9.203125 4.976562 -9.082031 5.5 -8.84375 C 6.019531 -8.613281 6.425781 -8.285156 6.71875 -7.859375 C 7.007812 -7.441406 7.15625 -6.957031 7.15625 -6.40625 L 7.15625 -6.28125 C 7.15625 -6.132812 7.078125 -6.0625 6.921875 -6.0625 L 5.5625 -6.0625 C 5.414062 -6.0625 5.34375 -6.101562 5.34375 -6.1875 L 5.34375 -6.3125 C 5.34375 -6.675781 5.191406 -6.984375 4.890625 -7.234375 C 4.597656 -7.492188 4.191406 -7.625 3.671875 -7.625 C 3.253906 -7.625 2.929688 -7.535156 2.703125 -7.359375 C 2.472656 -7.191406 2.359375 -6.957031 2.359375 -6.65625 C 2.359375 -6.4375 2.421875 -6.253906 2.546875 -6.109375 C 2.679688 -5.960938 2.878906 -5.828125 3.140625 -5.703125 C 3.410156 -5.585938 3.820312 -5.429688 4.375 -5.234375 C 4.988281 -5.015625 5.472656 -4.816406 5.828125 -4.640625 C 6.179688 -4.472656 6.5 -4.21875 6.78125 -3.875 C 7.0625 -3.53125 7.203125 -3.082031 7.203125 -2.53125 C 7.203125 -2 7.066406 -1.535156 6.796875 -1.140625 C 6.523438 -0.742188 6.140625 -0.4375 5.640625 -0.21875 C 5.140625 0 4.550781 0.109375 3.875 0.109375 Z M 3.875 0.109375 "/></g></g></g><path fill="#ffffff" d="M 161.199219 208.179688 L 161.199219 197.796875 C 170.597656 186.910156 171.820312 175.824219 169.023438 163.9375 C 165.238281 147.875 151.597656 137.511719 146.230469 133.976562 C 151.984375 136.417969 167.527344 144.226562 174.171875 159.554688 C 180.78125 174.804688 179.796875 189.90625 161.199219 208.179688 " fill-opacity="1" fill-rule="nonzero"/><g clip-path="url(#163cf3b13b)"><path fill="#f29e23" d="M 225.328125 128.183594 C 218.054688 139.460938 214.160156 152.613281 214.160156 152.613281 C 215.796875 139.851562 221.234375 128.183594 221.234375 128.183594 C 227.625 112.324219 236.019531 103.328125 236.019531 103.328125 C 236.011719 103.335938 236 103.339844 235.992188 103.347656 C 235.152344 103.914062 218.351562 110.308594 203.554688 162.609375 C 190.675781 208.117188 152.371094 215.875 152.371094 215.875 C 152.371094 215.875 156.054688 215.722656 161.199219 214.589844 L 161.199219 218.808594 L 193.070312 218.808594 C 204.71875 218.808594 214.160156 209.402344 214.160156 197.796875 L 214.160156 180.945312 L 251.800781 180.945312 L 251.800781 149.195312 C 251.800781 137.589844 242.359375 128.183594 230.710938 128.183594 L 225.328125 128.183594 " fill-opacity="1" fill-rule="nonzero"/></g><g clip-path="url(#86ca9b01d5)"><path fill="#06a9b1" d="M 195.109375 139.582031 C 194.953125 140.875 194.59375 142.089844 194.058594 143.164062 C 193 145.289062 191.253906 146.878906 189.023438 147.476562 C 184.300781 148.742188 179.199219 145.058594 177.632812 139.25 C 177.558594 138.964844 177.492188 138.675781 177.433594 138.394531 C 176.984375 136.167969 177.128906 133.984375 177.761719 132.09375 C 178.222656 128.253906 180.488281 125.09375 183.847656 124.195312 C 188.570312 122.929688 193.671875 126.613281 195.238281 132.425781 C 195.917969 134.945312 195.820312 137.453125 195.109375 139.582031 Z M 182.289062 90.683594 C 170.644531 90.683594 161.199219 100.089844 161.199219 111.695312 L 161.199219 128.183594 L 123.558594 128.183594 L 123.558594 159.933594 C 123.558594 168.007812 128.132812 175.019531 134.835938 178.535156 C 137.769531 180.074219 141.109375 180.945312 144.648438 180.945312 L 161.199219 180.945312 L 161.199219 197.796875 C 170.597656 186.910156 171.820312 175.824219 169.023438 163.9375 C 165.238281 147.871094 151.597656 137.511719 146.226562 133.976562 C 144.851562 133.386719 144.035156 133.113281 144.035156 133.113281 C 144.394531 133.15625 144.753906 133.203125 145.101562 133.253906 C 145.632812 133.324219 146.152344 133.40625 146.667969 133.488281 C 160.765625 135.78125 171.285156 141.832031 178.429688 147.535156 C 180.4375 149.140625 182.179688 150.714844 183.660156 152.167969 C 187.152344 155.609375 189.183594 158.382812 189.816406 159.289062 C 189.957031 159.492188 190.027344 159.601562 190.027344 159.601562 C 190.226562 159.128906 190.425781 158.664062 190.628906 158.199219 C 197.792969 141.710938 206.386719 129.6875 214.160156 121.167969 L 214.160156 90.683594 L 182.289062 90.683594 " fill-opacity="1" fill-rule="nonzero"/></g><path fill="#ffffff" d="M 195.109375 139.582031 C 194.953125 140.875 194.59375 142.089844 194.058594 143.164062 C 193 145.289062 191.253906 146.878906 189.023438 147.476562 C 184.300781 148.742188 179.199219 145.058594 177.632812 139.25 C 177.558594 138.964844 177.492188 138.675781 177.433594 138.394531 C 176.984375 136.167969 177.128906 133.984375 177.761719 132.09375 C 177.605469 133.390625 177.652344 134.761719 177.933594 136.152344 C 177.992188 136.4375 178.058594 136.722656 178.136719 137.007812 C 179.699219 142.820312 184.800781 146.503906 189.523438 145.238281 C 191.753906 144.636719 193.5 143.046875 194.558594 140.921875 C 194.769531 140.496094 194.957031 140.050781 195.109375 139.582031 " fill-opacity="1" fill-rule="nonzero"/><g fill="#161616" fill-opacity="1"><g transform="translate(246.510326, 218.5338)"><g><path d="M 2.75 -6.375 C 3.382812 -6.375 3.898438 -6.222656 4.296875 -5.921875 C 4.703125 -5.617188 4.90625 -5.21875 4.90625 -4.71875 C 4.90625 -4.132812 4.507812 -3.4375 3.71875 -2.625 L 2.4375 -1.265625 L 5.09375 -1.265625 L 5.09375 0 L 0.375 0 L 0.375 -1.03125 L 2.625 -3.421875 C 3.03125 -3.835938 3.234375 -4.195312 3.234375 -4.5 C 3.234375 -4.675781 3.171875 -4.816406 3.046875 -4.921875 C 2.921875 -5.023438 2.742188 -5.078125 2.515625 -5.078125 C 1.992188 -5.078125 1.421875 -4.8125 0.796875 -4.28125 L 0.203125 -5.421875 C 1.035156 -6.054688 1.882812 -6.375 2.75 -6.375 Z M 2.75 -6.375 "/></g></g></g><g fill="#161616" fill-opacity="1"><g transform="translate(252.360369, 218.5338)"><g><path d="M 3.171875 -6.359375 C 4.066406 -6.359375 4.753906 -6.082031 5.234375 -5.53125 C 5.710938 -4.976562 5.953125 -4.1875 5.953125 -3.15625 C 5.953125 -2.125 5.710938 -1.332031 5.234375 -0.78125 C 4.753906 -0.226562 4.066406 0.046875 3.171875 0.046875 C 2.265625 0.046875 1.570312 -0.226562 1.09375 -0.78125 C 0.613281 -1.332031 0.375 -2.125 0.375 -3.15625 C 0.375 -4.1875 0.613281 -4.976562 1.09375 -5.53125 C 1.570312 -6.082031 2.265625 -6.359375 3.171875 -6.359375 Z M 3.171875 -5.1875 C 2.765625 -5.1875 2.46875 -5.023438 2.28125 -4.703125 C 2.101562 -4.390625 2.015625 -3.875 2.015625 -3.15625 C 2.015625 -2.4375 2.101562 -1.914062 2.28125 -1.59375 C 2.46875 -1.28125 2.765625 -1.125 3.171875 -1.125 C 3.566406 -1.125 3.851562 -1.285156 4.03125 -1.609375 C 4.21875 -1.929688 4.3125 -2.445312 4.3125 -3.15625 C 4.3125 -3.875 4.21875 -4.390625 4.03125 -4.703125 C 3.851562 -5.023438 3.566406 -5.1875 3.171875 -5.1875 Z M 3.171875 -5.1875 "/></g></g></g><g fill="#161616" fill-opacity="1"><g transform="translate(259.137418, 218.5338)"><g><path d="M 2.75 -6.375 C 3.382812 -6.375 3.898438 -6.222656 4.296875 -5.921875 C 4.703125 -5.617188 4.90625 -5.21875 4.90625 -4.71875 C 4.90625 -4.132812 4.507812 -3.4375 3.71875 -2.625 L 2.4375 -1.265625 L 5.09375 -1.265625 L 5.09375 0 L 0.375 0 L 0.375 -1.03125 L 2.625 -3.421875 C 3.03125 -3.835938 3.234375 -4.195312 3.234375 -4.5 C 3.234375 -4.675781 3.171875 -4.816406 3.046875 -4.921875 C 2.921875 -5.023438 2.742188 -5.078125 2.515625 -5.078125 C 1.992188 -5.078125 1.421875 -4.8125 0.796875 -4.28125 L 0.203125 -5.421875 C 1.035156 -6.054688 1.882812 -6.375 2.75 -6.375 Z M 2.75 -6.375 "/></g></g></g><g fill="#161616" fill-opacity="1"><g transform="translate(264.987461, 218.5338)"><g><path d="M 2.75 -6.375 C 3.382812 -6.375 3.898438 -6.222656 4.296875 -5.921875 C 4.703125 -5.617188 4.90625 -5.21875 4.90625 -4.71875 C 4.90625 -4.132812 4.507812 -3.4375 3.71875 -2.625 L 2.4375 -1.265625 L 5.09375 -1.265625 L 5.09375 0 L 0.375 0 L 0.375 -1.03125 L 2.625 -3.421875 C 3.03125 -3.835938 3.234375 -4.195312 3.234375 -4.5 C 3.234375 -4.675781 3.171875 -4.816406 3.046875 -4.921875 C 2.921875 -5.023438 2.742188 -5.078125 2.515625 -5.078125 C 1.992188 -5.078125 1.421875 -4.8125 0.796875 -4.28125 L 0.203125 -5.421875 C 1.035156 -6.054688 1.882812 -6.375 2.75 -6.375 Z M 2.75 -6.375 "/></g></g></g><g fill="#161616" fill-opacity="1"><g transform="translate(101.640466, 218.5338)"><g><path d="M 3.046875 -6.375 C 3.992188 -6.375 4.820312 -6.140625 5.53125 -5.671875 L 4.9375 -4.421875 C 4.601562 -4.609375 4.242188 -4.765625 3.859375 -4.890625 C 3.484375 -5.015625 3.171875 -5.078125 2.921875 -5.078125 C 2.453125 -5.078125 2.21875 -4.921875 2.21875 -4.609375 C 2.21875 -4.410156 2.332031 -4.25 2.5625 -4.125 C 2.789062 -4.007812 3.066406 -3.910156 3.390625 -3.828125 C 3.722656 -3.742188 4.050781 -3.640625 4.375 -3.515625 C 4.707031 -3.390625 4.984375 -3.1875 5.203125 -2.90625 C 5.429688 -2.632812 5.546875 -2.289062 5.546875 -1.875 C 5.546875 -1.269531 5.304688 -0.796875 4.828125 -0.453125 C 4.359375 -0.117188 3.757812 0.046875 3.03125 0.046875 C 2.507812 0.046875 1.992188 -0.0390625 1.484375 -0.21875 C 0.972656 -0.394531 0.53125 -0.640625 0.15625 -0.953125 L 0.78125 -2.1875 C 1.09375 -1.90625 1.460938 -1.675781 1.890625 -1.5 C 2.328125 -1.320312 2.710938 -1.234375 3.046875 -1.234375 C 3.304688 -1.234375 3.507812 -1.28125 3.65625 -1.375 C 3.800781 -1.46875 3.875 -1.609375 3.875 -1.796875 C 3.875 -1.960938 3.789062 -2.101562 3.625 -2.21875 C 3.457031 -2.34375 3.25 -2.429688 3 -2.484375 C 2.757812 -2.546875 2.492188 -2.625 2.203125 -2.71875 C 1.910156 -2.8125 1.640625 -2.914062 1.390625 -3.03125 C 1.148438 -3.144531 0.945312 -3.328125 0.78125 -3.578125 C 0.625 -3.828125 0.546875 -4.125 0.546875 -4.46875 C 0.546875 -5.050781 0.773438 -5.515625 1.234375 -5.859375 C 1.691406 -6.203125 2.296875 -6.375 3.046875 -6.375 Z M 3.046875 -6.375 "/></g></g></g><g fill="#161616" fill-opacity="1"><g transform="translate(107.88651, 218.5338)"><g><path d="M 2.234375 0 L 0.625 0 L 0.625 -6.296875 L 2.234375 -6.296875 Z M 2.234375 0 "/></g></g></g><g fill="#161616" fill-opacity="1"><g transform="translate(111.198528, 218.5338)"><g><path d="M 6.4375 0 L 5.03125 0 L 2.140625 -3.875 L 2.140625 0 L 0.625 0 L 0.625 -6.296875 L 2.046875 -6.296875 L 4.953125 -2.40625 L 4.953125 -6.296875 L 6.4375 -6.296875 Z M 6.4375 0 "/></g></g></g><g fill="#161616" fill-opacity="1"><g transform="translate(118.722579, 218.5338)"><g><path d="M 3.578125 -6.359375 C 4.046875 -6.359375 4.503906 -6.257812 4.953125 -6.0625 C 5.410156 -5.875 5.800781 -5.617188 6.125 -5.296875 L 5.1875 -4.1875 C 4.988281 -4.445312 4.742188 -4.648438 4.453125 -4.796875 C 4.171875 -4.941406 3.890625 -5.015625 3.609375 -5.015625 C 3.109375 -5.015625 2.691406 -4.835938 2.359375 -4.484375 C 2.023438 -4.128906 1.859375 -3.695312 1.859375 -3.1875 C 1.859375 -2.65625 2.023438 -2.210938 2.359375 -1.859375 C 2.691406 -1.503906 3.109375 -1.328125 3.609375 -1.328125 C 3.867188 -1.328125 4.140625 -1.394531 4.421875 -1.53125 C 4.710938 -1.664062 4.96875 -1.84375 5.1875 -2.0625 L 6.125 -1.078125 C 5.78125 -0.734375 5.375 -0.453125 4.90625 -0.234375 C 4.445312 -0.0234375 3.988281 0.078125 3.53125 0.078125 C 2.582031 0.078125 1.789062 -0.226562 1.15625 -0.84375 C 0.53125 -1.46875 0.21875 -2.242188 0.21875 -3.171875 C 0.21875 -4.078125 0.535156 -4.832031 1.171875 -5.4375 C 1.816406 -6.050781 2.617188 -6.359375 3.578125 -6.359375 Z M 3.578125 -6.359375 "/></g></g></g><g fill="#161616" fill-opacity="1"><g transform="translate(125.400625, 218.5338)"><g><path d="M 5.5625 -5.046875 L 2.234375 -5.046875 L 2.234375 -3.78125 L 5.234375 -3.78125 L 5.234375 -2.53125 L 2.234375 -2.53125 L 2.234375 -1.265625 L 5.65625 -1.265625 L 5.65625 0 L 0.625 0 L 0.625 -6.296875 L 5.5625 -6.296875 Z M 5.5625 -5.046875 "/></g></g></g></svg>